<svg width="164" height="93" viewBox="0 0 164 93" fill="none" xmlns="http://www.w3.org/2000/svg">
<path d="M80.467 30.3506H73.3962C68.8213 40.5171 57.8361 61.8206 57.8361 61.8206H64.9397L80.467 30.3506Z" fill="#FF0852"/>
<path d="M1.41691 50.1587L9.27192 46.61C10.493 46.2779 9.27587 46.6066 8.29847 48.7447C7.07672 51.4172 7.89544 56.9148 18.6621 54.8531C27.2755 53.2038 35.4357 48.6705 38.4392 46.61L34.3158 54.395C31.6687 56.6603 23.595 61.191 12.4771 61.191C1.35911 61.191 -0.207735 53.5015 1.41691 50.1587Z" fill="#FF0852"/>
<path d="M11.6145 28.4882L14.6621 31.5859C13.8352 33.1857 12.1924 36.4519 12.2367 36.7178C12.2921 37.0502 13.8434 36.9394 18.6081 28.4882C23.3729 20.037 37.8442 9.11848 44.2156 9.78333C49.3128 10.3152 49.6152 13.5111 48.7587 16.2102C47.9023 18.9092 45.0813 21.2068 45.0813 21.2068C48.2095 19.7664 53.5889 16.2087 52.8676 11.7041C51.5358 3.38718 41.4276 2.2047 32.0305 7.61827C24.5128 11.9491 13.9541 24.3361 11.6145 28.4882Z" fill="#FF0852"/>
<path fill-rule="evenodd" clip-rule="evenodd" d="M90.2388 30.3506H83.168C78.5931 40.5171 67.6079 61.8206 67.6079 61.8206H74.7114L83.6269 43.7513L96.819 36.7285C94.7396 40.046 92.9285 41.9315 91.9094 42.8491L91.0335 43.562C91.0335 43.562 91.3538 43.3494 91.9094 42.8491L107.267 30.3506H100.196C100.165 30.4189 100.135 30.4869 100.104 30.5546L86.5778 37.7705L90.2388 30.3506Z" fill="#FF0852"/>
<path fill-rule="evenodd" clip-rule="evenodd" d="M134.357 3.3561C136.775 2.43739 139.024 1.58321 140.863 0.601866C143.854 -0.993563 146.005 2.89573 139.637 10.7642C133.269 18.6326 120.396 25.7618 120.396 25.7618C120.396 25.7618 130.493 16.1627 136.934 7.11884C136.934 7.11884 128.297 10.1491 124.077 13.9633C117.679 19.7462 114.312 33.77 114.312 33.77C119.505 30.8661 126.009 28.7362 128.639 30.3943C131.434 32.1561 131.019 34.4192 130.462 35.3305L130.277 35.5399L118.869 56.0321C118.781 56.2643 118.672 56.5024 118.539 56.7456C116.868 59.7832 113.451 61.9099 109.274 61.9099H99.6294L99.6604 61.8145H93.3823C93.3823 61.8145 109.287 33.515 113.888 20.0403C117.383 9.80516 126.718 6.25861 134.357 3.3561ZM122.606 36.9743C122.708 36.7396 122.82 36.4957 122.944 36.2422C125.223 31.5634 116.14 36.8651 111.134 40.2158L101.866 59.0146C102.808 59.0634 104.233 59.0539 106.16 58.872C109.38 58.5683 111.211 56.7456 112.099 55.5766L112.145 55.5463C114.103 52.4438 118.992 44.498 122.606 36.9743ZM135.955 30.3506H143.026L132.101 50.8572C128.351 58.2842 133.031 56.7039 140.659 54.1278L140.659 54.1277L140.667 54.1249C141.224 53.9368 141.797 53.7434 142.383 53.5479C143.685 53.1136 144.8 52.6256 145.754 52.1085C149.274 45.14 153.815 36.016 156.364 30.3506H163.435L150.115 57.3471C147.721 63.052 140.85 74.9442 130.003 82.3109C120.656 88.6579 111.051 91.1759 105.479 91.9036C105.442 91.9495 105.404 91.9946 105.365 92.0387C94.8265 93.7655 71.6129 91.1286 63.0693 66.7666H68.145C71.0352 73.2169 80.2416 86.0539 93.9454 85.8001C95.5233 85.7709 96.9145 85.8021 98.1381 85.8837C102.687 85.6631 111.08 84.3485 119.957 80.1964C130.135 75.4361 138.415 65.2458 141.57 60.3299L141.886 59.7125C137.617 60.9033 132.587 62.0327 129.389 62.0327C125.378 62.0327 122.996 58.272 122.72 56.4422C122.5 54.9783 124.199 52.0048 125.077 50.701L125.141 50.666C126.541 48.3433 131.998 39.145 135.955 30.3506Z" fill="#FF0852"/>
<path d="M64.3769 29.9678C70.5666 29.9678 72.3847 34.6081 72.0163 36.862C72.0915 37.8393 72.2113 38.4737 72.3495 38.8618C72.7817 38.1685 73.0413 37.6439 72.9369 37.9361C73.9846 37.3145 72.9768 40.6219 72.3495 38.8618C71.4355 40.3281 69.7493 42.5492 69.1009 39.3938C66.7993 28.1926 50.528 42.5814 47.5372 47.8479C44.5464 53.1144 45.2616 57.6656 53.844 53.0493C60.7099 49.3563 66.5875 43.6651 68.6681 41.2811C70.9437 42.0613 73.5314 45.2082 65.6772 51.5539C55.8595 59.4861 50.1378 61.7617 44.8063 61.7617C39.4749 61.7617 36.4841 53.6995 41.6205 45.1171C46.7569 36.5348 56.6396 29.9678 64.3769 29.9678Z" fill="#FF0852"/>
<path d="M1.25717 44.0554C-0.82325 52.8229 1.50491 56.7476 2.92904 57.614C6.14866 57.1189 12.2721 55.8873 11.0091 54.9214C9.43021 53.7141 6.7369 52.0424 13.1451 38.4829C19.5533 24.9235 32.5555 11.6428 37.4778 8.94949C42.4001 6.25618 42.9573 4.30549 40.0782 4.58411C37.1992 4.86273 30.1408 7.64887 23.1754 13.407C16.2099 19.1651 3.85769 33.096 1.25717 44.0554Z" fill="#FF0852"/>
</svg>
